<svg width="67" height="70" viewBox="0 0 67 70" fill="none" xmlns="http://www.w3.org/2000/svg">
<g clip-path="url(#clip0_26_324)">
<path d="M65.5488 43.7839L61.3143 39.3072C61.8552 36.0444 61.7863 32.7094 61.1111 29.4719L65.2439 24.9951C65.5647 24.6373 65.7791 24.1967 65.8629 23.7233C65.9467 23.2498 65.8966 22.7623 65.7181 22.3159C64.0043 18.0749 61.4718 14.2141 58.2656 10.9544C57.9522 10.6408 57.5614 10.4159 57.1329 10.3027C56.7045 10.1895 56.2537 10.1921 55.8265 10.3101L49.5935 11.904C47.6743 10.5225 45.5922 9.38341 43.3943 8.51257L41.8699 2.67924C41.7567 2.20611 41.5067 1.77687 41.1513 1.44513C40.7958 1.11338 40.3506 0.893844 39.8713 0.813929C37.7604 0.417356 35.6165 0.22429 33.4688 0.237379C30.7815 0.248666 28.1065 0.60195 25.5081 1.28874C25.0745 1.39787 24.6785 1.62265 24.3624 1.93917C24.0462 2.25569 23.8217 2.6521 23.7127 3.08622L22.0867 9.08912C20.2689 9.89723 18.5428 10.8978 16.9377 12.0736L10.7723 10.5475C10.3395 10.4342 9.88401 10.4406 9.45448 10.566C9.02496 10.6914 8.63748 10.9312 8.33332 11.2597C4.96534 14.7626 2.38905 18.9496 0.779116 23.5368C0.62299 23.9802 0.59096 24.4579 0.686495 24.9182C0.782029 25.3785 1.00149 25.8038 1.32112 26.1482L5.58941 30.5911C5.37329 32.0168 5.26008 33.4562 5.25066 34.8982C5.25066 35.9157 5.25066 36.9331 5.42004 37.9506L0.982368 42.9021C0.683729 43.2313 0.476524 43.6332 0.381421 44.0676C0.286318 44.502 0.306641 44.9538 0.440362 45.3779C1.83244 49.8622 4.1395 54.0082 7.21543 57.5533C7.52479 57.9175 7.9304 58.187 8.38576 58.331C8.84112 58.4749 9.32779 58.4875 9.78996 58.3672L15.6165 56.875C17.6552 58.5948 19.9387 60.0008 22.3916 61.0465L24.0853 67.1172C24.2158 67.5573 24.4599 67.9552 24.7929 68.2708C25.126 68.5864 25.5363 68.8085 25.9824 68.9147C28.4248 69.4675 30.9248 69.7524 33.4349 69.7626C35.4336 69.7422 37.4255 69.5489 39.397 69.186C39.8646 69.1034 40.2998 68.8911 40.6531 68.5734C41.0063 68.2557 41.2636 67.8452 41.3956 67.3885L42.9878 61.657C45.9126 60.6094 48.6387 59.0727 51.0501 57.1124L57.0122 58.469C57.4593 58.573 57.9264 58.5521 58.3624 58.4085C58.7985 58.265 59.1868 58.0044 59.4851 57.655C62.4545 54.3538 64.7555 50.5068 66.2601 46.3275C66.3818 45.8787 66.3799 45.4053 66.2546 44.9575C66.1294 44.5097 65.8855 44.1042 65.5488 43.7839ZM33.7398 48.0911C32.0279 48.1232 30.3267 47.8139 28.7353 47.1813C27.1439 46.5487 25.6941 45.6054 24.4705 44.4063C23.2468 43.2072 22.2737 41.7764 21.6077 40.1971C20.9418 38.6178 20.5965 36.9217 20.5918 35.2074C20.587 33.4932 20.9231 31.7952 21.5803 30.2122C22.2375 28.6293 23.2027 27.1931 24.4198 25.9873C25.6368 24.7815 27.0813 23.8302 28.6692 23.1888C30.2571 22.5474 31.9566 22.2288 33.6687 22.2514C37.0917 22.2424 40.3781 23.5952 42.8049 26.0121C45.2317 28.429 46.6001 31.712 46.6091 35.139C46.618 38.566 45.2669 41.8562 42.8528 44.2859C40.4387 46.7155 37.1595 48.0855 33.7364 48.0945" fill="#01497B"/>
</g>
<defs>
<clipPath id="clip0_26_324">
<rect width="67" height="70" fill="white"/>
</clipPath>
</defs>
</svg>
