<?xml version="1.0" encoding="UTF-8"?>
<svg id="Capa_1" data-name="Capa 1" xmlns="http://www.w3.org/2000/svg" viewBox="0 0 48 50">
  <defs>
    <style>
      .cls-1 {
        fill: #cdd8e0;
        fill-rule: evenodd;
        stroke-width: 0px;
      }
    </style>
  </defs>
  <path class="cls-1" d="m0,3.96C0,2.91.42,1.9,1.17,1.16,1.92.42,2.93,0,3.99,0h39.91c1.06,0,2.07.42,2.82,1.16.75.74,1.17,1.75,1.17,2.8v5.51c0,1.4-.56,2.74-1.56,3.73l-14.4,14.29v19.59c0,.49-.13.98-.37,1.41-.24.43-.59.8-1.02,1.06-.42.26-.91.41-1.41.43-.5.02-.99-.08-1.44-.3l-9.89-4.9c-.55-.27-1.02-.7-1.34-1.22-.32-.52-.5-1.12-.5-1.73v-14.34L1.56,13.2C.56,12.21,0,10.86,0,9.46V3.96Z"/>
</svg>