<svg width="70" height="69" viewBox="0 0 70 69" fill="none" xmlns="http://www.w3.org/2000/svg">
<g clip-path="url(#clip0_26_236)">
<path d="M46.15 50.12C40.5245 54.49 33.4449 56.5516 26.3527 55.885C19.2605 55.2184 12.6891 51.8738 7.97636 46.5321C3.26365 41.1904 0.764057 34.2533 0.986543 27.1334C1.20903 20.0134 4.13686 13.2459 9.17389 8.2089C14.2109 3.17187 20.9784 0.244033 28.0984 0.021547C35.2183 -0.200939 42.1554 2.29865 47.4971 7.01136C52.8388 11.7241 56.1834 18.2955 56.85 25.3877C57.5166 32.4799 55.455 39.5595 51.085 45.185L69.81 63.84L64.84 68.81L46.185 50.12H46.15ZM29 49C31.7578 49 34.4885 48.4568 37.0364 47.4015C39.5842 46.3461 41.8992 44.7993 43.8493 42.8493C45.7993 40.8992 47.3461 38.5842 48.4015 36.0364C49.4568 33.4885 50 30.7578 50 28C50 25.2423 49.4568 22.5115 48.4015 19.9637C47.3461 17.4158 45.7993 15.1008 43.8493 13.1508C41.8992 11.2007 39.5842 9.65389 37.0364 8.59854C34.4885 7.5432 31.7578 7.00001 29 7.00001C23.4305 7.00001 18.089 9.21251 14.1508 13.1508C10.2125 17.089 8.00001 22.4305 8.00001 28C8.00001 33.5696 10.2125 38.911 14.1508 42.8493C18.089 46.7875 23.4305 49 29 49Z" fill="#01497B"/>
</g>
<defs>
<clipPath id="clip0_26_236">
<rect width="70" height="69" fill="white"/>
</clipPath>
</defs>
</svg>
