<svg width="55" height="70" viewBox="0 0 55 70" fill="none" xmlns="http://www.w3.org/2000/svg">
<path fill-rule="evenodd" clip-rule="evenodd" d="M6 0C2.68629 0 0 2.68629 0 6V64C0 67.3137 2.68629 70 6 70H49C52.3137 70 55 67.3137 55 64V6C55 2.68629 52.3137 0 49 0H6ZM10.8333 10.8333C9.45262 10.8333 8.33333 11.9526 8.33333 13.3333C8.33333 14.714 9.45262 15.8333 10.8333 15.8333H44.1667C45.5474 15.8333 46.6667 14.714 46.6667 13.3333C46.6667 11.9526 45.5474 10.8333 44.1667 10.8333H10.8333ZM8.33333 24.1667C8.33333 22.786 9.45262 21.6667 10.8333 21.6667H44.1667C45.5474 21.6667 46.6667 22.786 46.6667 24.1667C46.6667 25.5474 45.5474 26.6667 44.1667 26.6667H10.8333C9.45262 26.6667 8.33333 25.5474 8.33333 24.1667ZM10.8333 32.5C9.45262 32.5 8.33333 33.6193 8.33333 35C8.33333 36.3807 9.45262 37.5 10.8333 37.5H44.1667C45.5474 37.5 46.6667 36.3807 46.6667 35C46.6667 33.6193 45.5474 32.5 44.1667 32.5H10.8333ZM8.33333 45.8333C8.33333 44.4526 9.45262 43.3333 10.8333 43.3333H44.1667C45.5474 43.3333 46.6667 44.4526 46.6667 45.8333C46.6667 47.214 45.5474 48.3333 44.1667 48.3333H10.8333C9.45262 48.3333 8.33333 47.214 8.33333 45.8333ZM10.8333 54.1667C9.45262 54.1667 8.33333 55.286 8.33333 56.6667C8.33333 58.0474 9.45262 59.1667 10.8333 59.1667H40.8333C42.214 59.1667 43.3333 58.0474 43.3333 56.6667C43.3333 55.286 42.214 54.1667 40.8333 54.1667H10.8333Z" fill="#01497B"/>
</svg>
